<svg width="18" height="18" viewBox="0 0 18 18" fill="#FF423B" xmlns="http://www.w3.org/2000/svg">
<path d="M9 0.0625C4.07191 0.0625 0.0625 4.07191 0.0625 9C0.0625 13.9281 4.07191 17.9375 9 17.9375C13.9281 17.9375 17.9375 13.9281 17.9375 9C17.9375 4.07191 13.9281 0.0625 9 0.0625ZM12.4375 9.6875H5.5625C5.38016 9.6875 5.2053 9.61507 5.07636 9.48614C4.94743 9.35721 4.875 9.18234 4.875 9C4.875 8.81766 4.94743 8.6428 5.07636 8.51386C5.2053 8.38493 5.38016 8.3125 5.5625 8.3125H12.4375C12.6198 8.3125 12.7947 8.38493 12.9236 8.51386C13.0526 8.6428 13.125 8.81766 13.125 9C13.125 9.18234 13.0526 9.35721 12.9236 9.48614C12.7947 9.61507 12.6198 9.6875 12.4375 9.6875Z" />
</svg>
