<svg width="15" height="15" viewBox="0 0 15 15" fill="white" xmlns="http://www.w3.org/2000/svg">
<path d="M7.5 1.875C4.39834 1.875 1.875 4.39834 1.875 7.5C1.875 10.6017 4.39834 13.125 7.5 13.125C10.6017 13.125 13.125 10.6017 13.125 7.5C13.125 4.39834 10.6017 1.875 7.5 1.875ZM10.1751 10.1751C10.0872 10.2629 9.96802 10.3123 9.84375 10.3123C9.71948 10.3123 9.6003 10.2629 9.5124 10.1751L8.25732 8.92031C7.7271 9.28517 7.07966 9.43871 6.44205 9.3508C5.80445 9.26289 5.22272 8.93987 4.81101 8.44514C4.39931 7.9504 4.18735 7.31966 4.21674 6.6767C4.24612 6.03374 4.51473 5.42497 4.96985 4.96985C5.42497 4.51473 6.03374 4.24612 6.6767 4.21674C7.31966 4.18735 7.9504 4.39931 8.44514 4.81101C8.93987 5.22272 9.26289 5.80445 9.3508 6.44205C9.43871 7.07966 9.28517 7.7271 8.92031 8.25732L10.1751 9.5124C10.2629 9.6003 10.3123 9.71948 10.3123 9.84375C10.3123 9.96802 10.2629 10.0872 10.1751 10.1751Z" />
<path d="M6.79688 8.4375C7.70297 8.4375 8.4375 7.70297 8.4375 6.79688C8.4375 5.89078 7.70297 5.15625 6.79688 5.15625C5.89078 5.15625 5.15625 5.89078 5.15625 6.79688C5.15625 7.70297 5.89078 8.4375 6.79688 8.4375Z" />
</svg>
